# xmcd CD database file
#
# Track frame offsets:
#	150
#	14362
#	27791
#	33151
#	53163
#	65526
#	79630
#	91481
#	103213
#	115527
#	128543
#	142676
#	154751
#	166146
#	178705
#	190095
#	204377
#	225374
#	237151
#	249399
#	268499
#	281974
#	291208
#
# Disc length: 4089 seconds
#
# Revision: 3
# Processed by: cddbd v1.5.2PL0 Copyright (c) Steve Scherf et al.
# Submitted via: CDex 1.70beta2
#
DISCID=320ff717
DTITLE=Various Artist - Country Music (A Film By Ken Burns) The Soundtrack [disc 1]
DYEAR=2019
DGENRE=Country
TTITLE0=The Carter Family - Can the Circle Be Unbroken (Bye and Bye)
TTITLE1=Jimmie Rodgers - Mule Skinner Blues (Blue Yodel No. 8)
TTITLE2=DeFord Bailey - Fox Chase
TTITLE3=The Nitty Gritty Dirt Band - I'm Thinking Tonight of My Blue Eyes
TTITLE4=Grandpa Jones and His Grandchildren - Mountain Dew
TTITLE5=Patsy Montana and the Prairie Ramblers - I Want to Be a Cowboy's Sweetheart
TTITLE6=Bob Wills and His Texas Playboys - New San Anonio Rose
TTITLE7=Roy Acuff and His Smokey Mountain Boys - Wabash Cannon Ball
TTITLE8=Hank Williams with His Drifting Cowboys - Honky Tonkin'
TTITLE9=Bill Monroe and His Blue Grass Boys - It's Mighty Dark to Travel
TTITLE10=Maddox Brothers and Rose - New Mule Skinner Blues
TTITLE11=Lester Flatt, Earl Scruggs and the Foggy Mountain Boys - Foggy Mountain Breakdown
TTITLE12=Kitty Wells - It Wasn't God Who Made Honky Tonk Angels
TTITLE13=Hank Williams with His Drifting Cowboys - I'm So Lonesome I Could Cry
TTITLE14=Ray Price - Crazy Arms
TTITLE15=Lefty Frizzell - The Long Black Veil
TTITLE16=Marty Robbins - El Paso
TTITLE17=Johnny Cash - Ring of Fire
TTITLE18=Patsy Cline - Crazy
TTITLE19=Ray Charles - I Can't Stop Loving You
TTITLE20=Loretta Lynn - Coal Miner's Daughter
TTITLE21=Charley Pride - Kiss an Angel Good Mornin'
TTITLE22=Merle Haggard and The Strangers - Hungry Eyes
EXTD=YEAR: 2019
EXTT0=
EXTT1=
EXTT2=
EXTT3=
EXTT4=
EXTT5=
EXTT6=
EXTT7=
EXTT8=
EXTT9=
EXTT10=
EXTT11=
EXTT12=
EXTT13=
EXTT14=
EXTT15=
EXTT16=
EXTT17=
EXTT18=
EXTT19=
EXTT20=
EXTT21=
EXTT22=
PLAYORDER=
